<?xml version="1.0" encoding="UTF-8" standalone="no"?>
<svg
   xmlns:dc="http://purl.org/dc/elements/1.1/"
   xmlns:cc="http://creativecommons.org/ns#"
   xmlns:rdf="http://www.w3.org/1999/02/22-rdf-syntax-ns#"
   xmlns:svg="http://www.w3.org/2000/svg"
   xmlns="http://www.w3.org/2000/svg"
   id="svg8"
   version="1.1"
   viewBox="0 0 67.733337 67.73465"
   height="67.73465mm"
   width="67.733337mm">
  <defs
     id="defs2" />
  <metadata
     id="metadata5">
    <rdf:RDF>
      <cc:Work
         rdf:about="">
        <dc:format>image/svg+xml</dc:format>
        <dc:type
           rdf:resource="http://purl.org/dc/dcmitype/StillImage" />
        <dc:title></dc:title>
      </cc:Work>
    </rdf:RDF>
  </metadata>
  <g
     transform="translate(-68.984204,-87.056009)"
     id="layer1">
    <path
       style="fill:#ffffff;stroke-width:0.26458332"
       id="path8"
       d="m 102.85061,87.056009 c -18.673237,0 -33.866406,15.193171 -33.866406,33.866931 0,18.67535 15.193169,33.86772 33.866406,33.86772 18.67376,0 33.86693,-15.19237 33.86693,-33.86772 0,-18.67376 -15.19317,-33.866931 -33.86693,-33.866931" />
    <path
       style="fill:#90b4fe;stroke-width:0.26458332"
       id="path16"
       d="m 111.13255,133.32675 c 0.18891,0.0937 0.61727,0.24659 1.21338,0.41566 4.01029,-2.94402 6.61643,-7.68615 6.62675,-13.04581 h -0.002 c -0.0151,-8.93524 -7.24588,-16.16498 -16.18324,-16.18271 -1.77642,0.003 -3.482977,0.2966 -5.080787,0.82603 3.285847,3.74544 4.865937,9.09796 6.394437,14.95293 8e-4,0.003 0.002,0.005 0.003,0.007 0.003,0.005 0.48895,1.62587 1.32344,3.77667 0.82868,2.14788 2.00925,4.80695 3.29671,6.74476 0.84535,1.29857 1.77509,2.23176 2.40824,2.5056" />
    <path
       style="fill:#91dc47;fill-opacity:1;stroke-width:0.26458332"
       id="path16-3"
       d="m 94.44149,108.36539 c -0.18891,-0.0937 -0.61727,-0.24659 -1.21338,-0.41566 -4.010288,2.94402 -6.616428,7.68615 -6.626748,13.04581 h 0.002 c 0.0151,8.93524 7.245878,16.16498 16.183238,16.18271 1.77642,-0.003 3.48298,-0.2966 5.08079,-0.82603 -3.28585,-3.74544 -4.86594,-9.09796 -6.39444,-14.95293 -7.9e-4,-0.003 -0.002,-0.005 -0.003,-0.007 -0.003,-0.005 -0.48895,-1.62587 -1.32344,-3.77667 -0.82868,-2.14788 -2.00925,-4.80695 -3.29671,-6.74476 -0.84535,-1.29857 -1.77509,-2.23176 -2.40824,-2.5056" />
    <path
       d="m 87.286392,131.36519 c 0,-0.35917 3.663558,-17.28817 3.950896,-18.24596 0.431007,-1.50852 1.604304,-2.92127 2.849435,-3.49595 0.885959,-0.40706 1.676137,-0.45494 7.782077,-0.45494 h 6.77639 l -0.11973,0.55073 c -0.0718,0.28733 -0.26339,1.14935 -0.431,1.91558 l -0.28734,1.36486 h -5.79465 c -6.991899,0 -6.60878,-0.16762 -7.303181,2.9931 -0.263394,1.19724 -0.478897,2.2987 -0.478897,2.46632 0,0.2155 1.005683,0.28734 4.262178,0.28734 h 4.26219 l 1.14935,1.58036 c 0.62257,0.86201 1.19724,1.72402 1.26907,1.91558 0.0958,0.28733 -0.86201,0.33523 -5.86649,0.33523 h -6.010146 l -0.359172,1.74797 c -0.215504,0.93385 -0.646511,2.92127 -0.933849,4.35795 l -0.550731,2.63394 -2.083201,0.0719 c -1.149351,0.0239 -2.083199,0.0239 -2.083199,-0.024 z"
       id="path3735"
       style="fill:#91dc47;fill-opacity:1;stroke:#ffffff;stroke-width:2.5;stroke-miterlimit:4;stroke-dasharray:none;stroke-opacity:1;paint-order:markers stroke fill" />
    <path
       d="m 100.9589,130.07217 c 0.6944,-0.76624 2.34659,-2.51421 3.66355,-3.90301 1.34092,-1.36485 2.60999,-2.72971 2.8255,-3.01705 0.40706,-0.50283 0.35917,-0.59862 -1.89164,-3.83117 -1.24514,-1.81981 -2.44238,-3.56778 -2.63394,-3.85511 l -0.35917,-0.55074 h 2.27476 2.29871 l 1.70008,2.49026 1.72402,2.49027 2.41843,-2.49027 2.44237,-2.5142 2.58605,0.0719 2.58604,0.0718 -3.08889,3.23255 c -1.70008,1.77192 -3.42411,3.63962 -3.85512,4.11851 l -0.79017,0.88596 2.60999,3.78329 c 1.43669,2.08319 2.68181,3.92694 2.80154,4.09456 0.11972,0.21551 -0.33523,0.28734 -2.10714,0.28734 h -2.27476 l -1.89165,-2.75366 -1.86769,-2.7297 -2.58604,2.7297 -2.5621,2.75366 h -2.65788 -2.65789 z"
       id="path3737"
       style="fill:#90b4fe;fill-opacity:1;stroke:#ffffff;stroke-width:2.5;stroke-miterlimit:4;stroke-dasharray:none;stroke-opacity:1;paint-order:markers stroke fill" />
    <path
       style="fill:#5881d8;stroke-width:0.26458332"
       id="path18"
       d="m 102.88315,90.374149 c -10.251017,0 -19.318817,5.046397 -24.87295,12.784141 2.890573,-1.81028 5.842,-2.46327 8.417718,-2.43999 3.557588,0.0103 6.354498,1.11337 7.696465,1.86796 0.324114,0.18679 0.631825,0.38788 0.933185,0.59452 2.394479,-1.05463 5.040312,-1.64439 7.824792,-1.64439 10.73917,0.001 19.44502,8.70453 19.44661,19.4437 h -0.002 c 0,5.41443 -2.21456,10.31002 -5.78459,13.83533 0.8763,0.0982 1.81081,0.15928 2.76516,0.15451 3.38958,0.002 7.05327,-0.74639 9.79991,-3.05646 1.79096,-1.50866 3.29141,-3.71766 4.12353,-7.02972 0.16272,-1.27926 0.25638,-2.57969 0.25638,-3.90313 0,-16.90211 -13.70171,-30.606471 -30.60462,-30.606471" />
    <path
       style="fill:#63b132;stroke-width:0.26458332"
       id="path14"
       d="m 116.97803,139.54061 c -2.14312,-0.26855 -3.91186,-0.59267 -5.45915,-1.1385 -2.60244,1.29222 -5.53323,2.02221 -8.63652,2.02221 -10.737854,0 -19.442381,-8.70321 -19.443704,-19.44423 0,-5.82798 2.567517,-11.05244 6.6294,-14.61558 -1.086379,-0.26247 -2.219325,-0.41566 -3.376613,-0.41355 -5.704945,0.0537 -11.727127,3.21099 -14.234318,11.73771 -0.234421,1.24116 -0.178594,2.17964 -0.178594,3.29195 0,16.90291 13.703035,30.60594 30.604619,30.60594 10.35103,0 19.49503,-5.14324 25.03249,-13.0093 -2.99508,0.74639 -5.87533,1.10332 -8.34178,1.11099 -0.92445,0 -1.79229,-0.0495 -2.59583,-0.14764" />
  </g>
</svg>
